SubjTestrun_81
version=1
nRows=85
nColumns=19
inDegrees=no
endheader
time	l_ground_force_vx	l_ground_force_vy	l_ground_force_vz	l_ground_force_px	l_ground_force_py	l_ground_force_pz	ground_force_vx	ground_force_vy	ground_force_vz	ground_force_px	ground_force_py	ground_force_pz	l_ground_torque_x	l_ground_torque_y	l_ground_torque_z	ground_torque_x	ground_torque_y	ground_torque_z	
29.19	0	0	0	0	0	0	0	0	0	0	0	0	0	0	0	0	0	0
29.2	0	0	0	0	0	0	0	0	0	0	0	0	0	0	0	0	0	0
29.21	0	0	0	0	0	0	0	0	0	0	0	0	0	0	0	0	0	0
29.22	0	0	0	0	0	0	0	0	0	0	0	0	0	0	0	0	0	0
29.23	0	0	0	0	0	0	0	0	0	0	0	0	0	0	0	0	0	0
29.24	0	0	0	0	0	0	0	0	0	0	0	0	0	0	0	0	0	0
29.25	0	0	0	0	0	0	0	0	0	0	0	0	0	0	0	0	0	0
29.26	-14.7788503531499	74.5794484748142	22.1762319462882	-0.0394893779031016	0	0.0112851225642285	0	0	0	0	0	0	0	-15.5560000676851	0	0	0	0
29.27	-14.1136142123789	211.183504714417	30.8992543179175	-0.0277543809862967	0	-0.0173713834166014	0	0	0	0	0	0	0	-10.3053812873828	0	0	0	0
29.28	-15.1852118071833	415.849273962976	40.2854907150916	-0.0148656692397622	0	-0.0262179875796903	0	0	0	0	0	0	0	-4.75267716353232	0	0	0	0
29.29	-31.519547439962	644.394008996305	46.7614385021016	-0.00514574304448475	0	-0.0294950523534217	0	0	0	0	0	0	0	-17.4828758817453	0	0	0	0
29.3	-65.7616827830641	829.110570932255	46.1307704403443	0.00208853241197132	0	-0.0305394152573684	0	0	0	0	0	0	0	-53.6202668762126	0	0	0	0
29.31	-110.354085993536	961.840278197648	46.3075285622263	0.00589212319702274	0	-0.0314257223821226	0	0	0	0	0	0	0	-104.272268267994	0	0	0	0
29.32	-151.068838826278	1072.07426550576	54.1984882648124	0.00424020418173346	0	-0.0327068586737673	0	0	0	0	0	0	0	-150.752808022053	0	0	0	0
29.33	-172.729974176994	1177.46086721097	64.7258016262932	-0.00380409040154735	0	-0.0339982418467773	0	0	0	0	0	0	0	-172.712258702513	0	0	0	0
29.34	-173.611142341444	1278.40095540992	74.3682165951398	-0.0176296290779562	0	-0.0348593930750899	0	0	0	0	0	0	0	-168.267088029363	0	0	0	0
29.35	-155.583734660587	1366.31502686884	79.7769583902078	-0.0351963219533439	0	-0.0352373422944722	0	0	0	0	0	0	0	-140.255717734609	0	0	0	0
29.36	-125.152021905007	1434.42081068146	81.9230593290651	-0.0544026260807894	0	-0.0354305039246721	0	0	0	0	0	0	0	-97.6023762478625	0	0	0	0
29.37	-87.7197001279969	1475.75990875982	80.9525241759613	-0.0733875105488726	0	-0.0356159713885355	0	0	0	0	0	0	0	-47.5908876004266	0	0	0	0
29.38	-48.2976325700923	1484.9841327517	77.2544029411326	-0.0911930599168595	0	-0.0359256810209794	0	0	0	0	0	0	0	3.42357255651174	0	0	0	0
29.39	-10.5412000291923	1461.0125272933	72.3616517639747	-0.107511094074598	0	-0.0364406559365683	0	0	0	0	0	0	0	51.1430601798062	0	0	0	0
29.4	22.8503803101288	1406.3753837895	67.2307078303	-0.12239833269085	0	-0.0370945037735891	0	0	0	0	0	0	0	92.4771479177718	0	0	0	0
29.41	50.433967332562	1324.53668229584	61.5291013051268	-0.13642507370897	0	-0.0376994434244811	0	0	0	0	0	0	0	125.75781959623	0	0	0	0
29.42	72.4045157374547	1218.30572372716	54.9500274258571	-0.150811269100297	0	-0.037965275150332	0	0	0	0	0	0	0	151.185438434205	0	0	0	0
29.43	89.7803018937415	1090.67452057606	47.7340215254186	-0.166876308321518	0	-0.0376864654706823	0	0	0	0	0	0	0	169.796364753738	0	0	0	0
29.44	103.574292574154	945.856068456208	40.5177885423498	-0.185619274280724	0	-0.0367179410132998	0	0	0	0	0	0	0	182.592809330694	0	0	0	0
29.45	113.672860559722	789.913414486654	33.9132406637132	-0.207697382785228	0	-0.0350984613686236	0	0	0	0	0	0	0	189.377970609649	0	0	0	0
29.46	119.673657634707	630.687242163661	28.1332823171576	-0.233220048399651	0	-0.0329102008867084	0	0	0	0	0	0	0	189.710840036161	0	0	0	0
29.47	120.304870240762	478.213494890924	23.1576893084817	-0.261267624033101	0	-0.0303146607317403	0	0	0	0	0	0	0	182.250183435587	0	0	0	0
29.48	114.286598122811	342.827065122425	19.0469048647177	-0.288759423081761	0	-0.0275301618534208	0	0	0	0	0	0	0	166.159717758062	0	0	0	0
29.49	101.315791216104	231.992178073047	16.131671375881	-0.309299525530691	0	-0.0250512595145996	0	0	0	0	0	0	0	142.110049056711	0	0	0	0
29.5	82.8490983734946	147.970892651513	14.2556078883106	-0.311928071641902	0	-0.0234112546251286	0	0	0	0	0	0	0	112.872789076338	0	0	0	0
29.51	61.4189716723552	88.4203361569298	13.3672574478312	-0.279959319785113	0	-0.0217413148009836	0	0	0	0	0	0	0	82.0020017735312	0	0	0	0
29.52	39.5437654460198	48.4754857732441	13.0710180376226	-0.19112989216581	0	-0.0135226568106439	0	0	0	0	0	0	0	52.5025409774565	0	0	0	0
29.53	20.1479288884868	22.7179710851537	13.0626731751176	-0.0192457634378622	0	0.0276773796814579	0	0	0	0	0	0	0	27.2719694437772	0	0	0	0
29.54	0	0	0	0	0	0	0	0	0	0	0	0	0	0	0	0	0	0
29.55	0	0	0	0	0	0	0	0	0	0	0	0	0	0	0	0	0	0
29.56	0	0	0	0	0	0	0	0	0	0	0	0	0	0	0	0	0	0
29.57	0	0	0	0	0	0	0	0	0	0	0	0	0	0	0	0	0	0
29.58	0	0	0	0	0	0	0	0	0	0	0	0	0	0	0	0	0	0
29.59	0	0	0	0	0	0	0	0	0	0	0	0	0	0	0	0	0	0
29.6	0	0	0	0	0	0	0	0	0	0	0	0	0	0	0	0	0	0
29.61	0	0	0	0	0	0	0	0	0	0	0	0	0	0	0	0	0	0
29.62	0	0	0	0	0	0	0	0	0	0	0	0	0	0	0	0	0	0
29.63	0	0	0	0	0	0	0	0	0	0	0	0	0	0	0	0	0	0
29.64	0	0	0	0	0	0	0	0	0	0	0	0	0	0	0	0	0	0
29.65	0	0	0	0	0	0	3.57809869191196	108.385942328201	-24.1134531087334	0.0102177068491754	0	0.0625962649246206	0	0	0	0	0.764632340075375	0
29.66	0	0	0	0	0	0	-5.65404169736143	267.40771615242	-32.4689604286426	0.0102257803359085	0	0.0729779232681108	0	0	0	0	1.80032753998925	0
29.67	0	0	0	0	0	0	-22.9553358113595	483.321195048575	-38.2233863252414	0.00564256100992917	0	0.074062042384919	0	0	0	0	2.53982201253781	0
29.68	0	0	0	0	0	0	-53.0137550490878	698.021120610411	-34.9763316644205	0.00175954843101108	0	0.073092983456117	0	0	0	0	1.51378284765663	0
29.69	0	0	0	0	0	0	-89.9198807859632	853.302963706504	-23.7550249675377	-0.00206114523759555	0	0.0717836327775671	0	0	0	0	-1.4099229872195	0
29.7	0	0	0	0	0	0	-126.847742624594	956.628267677363	-19.9191327314174	-0.00842227107344656	0	0.0708206231652942	0	0	0	0	-4.57260427565493	0
29.71	0	0	0	0	0	0	-150.306532626311	1044.25376751242	-27.336862078765	-0.0182497535375134	0	0.0707238500088909	0	0	0	0	-6.08114166961209	0
29.72	0	0	0	0	0	0	-153.160299503682	1141.14441856673	-42.2602157628195	-0.0306992367912138	0	0.0714752158426652	0	0	0	0	-5.18624501326216	0
29.73	0	0	0	0	0	0	-138.159432141055	1248.81938774343	-58.8201284373912	-0.0440821602865353	0	0.0726751476395407	0	0	0	0	-2.20215975743589	0
29.74	0	0	0	0	0	0	-113.427112002951	1351.21305971791	-70.6523187531291	-0.0573294780516164	0	0.0739389910068666	0	0	0	0	1.60635646483791	0
29.75	0	0	0	0	0	0	-87.4381368649547	1428.14524758325	-76.3185273024853	-0.0702987019756703	0	0.0749409064839958	0	0	0	0	4.93350133352503	0
29.76	0	0	0	0	0	0	-64.1059198691962	1465.42550129107	-76.9703032848456	-0.0835310263751764	0	0.0755656839403692	0	0	0	0	6.9596072562655	0
29.77	0	0	0	0	0	0	-43.0791504079876	1458.62612250484	-75.1728419548619	-0.0979807855404168	0	0.0757017910525805	0	0	0	0	7.46455361324241	0
29.78	0	0	0	0	0	0	-21.2925026172532	1411.54695636752	-72.6500635631996	-0.114420830231392	0	0.0752602520401588	0	0	0	0	7.01540741063863	0
29.79	0	0	0	0	0	0	3.94398499813634	1332.00833964002	-69.3406500879458	-0.132948587618061	0	0.0741904809671035	0	0	0	0	6.67371549865831	0
29.8	0	0	0	0	0	0	32.7066362791569	1227.93792519551	-64.5000840053903	-0.15287647774274	0	0.072581356670601	0	0	0	0	7.09310678121408	0
29.81	0	0	0	0	0	0	63.1491644777501	1105.41033275012	-57.7817722822761	-0.172943624641641	0	0.070653976960731	0	0	0	0	8.36183289670967	0
29.82	0	0	0	0	0	0	92.178065067683	969.467850978617	-49.9002714472457	-0.191650560535573	0	0.0687180251716787	0	0	0	0	10.2123021095789	0
29.83	0	0	0	0	0	0	115.463133114631	825.479118585052	-42.5770261382364	-0.207458390382623	0	0.0670902160823733	0	0	0	0	11.9693157131938	0
29.84	0	0	0	0	0	0	128.815412285804	679.220169936204	-36.8173148030859	-0.219324866293867	0	0.06598121180092	0	0	0	0	12.7209839723542	0
29.85	0	0	0	0	0	0	130.34131174458	536.901213846998	-32.70261846977	-0.227105162025347	0	0.0653495543391786	0	0	0	0	12.0291189032552	0
29.86	0	0	0	0	0	0	120.958304345074	405.219744148559	-29.5966747079694	-0.231998263667963	0	0.0647387818907609	0	0	0	0	10.0711495725368	0
29.87	0	0	0	0	0	0	103.326992669961	290.005575376548	-26.6905879863291	-0.237418199955208	0	0.0630652228968634	0	0	0	0	7.34383892881266	0
29.88	0	0	0	0	0	0	81.5384622613932	194.887161597886	-23.5116831709386	-0.249637899511432	0	0.0579757812394525	0	0	0	0	4.54219944009021	0
29.89	0	0	0	0	0	0	60.5340246264527	120.843475052601	-20.2322448612041	-0.280595468946783	0	0.0449978565683562	0	0	0	0	2.28606996281352	0
29.9	0	0	0	0	0	0	44.1448122717732	66.7441618217905	-17.4280327982916	-0.355417730209067	0	0.0133533802635177	0	0	0	0	0.847150245381482	0
29.91	0	0	0	0	0	0	33.1593583110155	30.6603141524586	-15.186219060975	-0.535297301865203	0	-0.0695749552333714	0	0	0	0	0.242846699126015	0
29.92	0	0	0	0	0	0	0	0	0	0	0	0	0	0	0	0	0	0
29.93	0	0	0	0	0	0	0	0	0	0	0	0	0	0	0	0	0	0
29.94	0	0	0	0	0	0	0	0	0	0	0	0	0	0	0	0	0	0
29.95	0	0	0	0	0	0	0	0	0	0	0	0	0	0	0	0	0	0
29.96	0	0	0	0	0	0	0	0	0	0	0	0	0	0	0	0	0	0
29.97	0	0	0	0	0	0	0	0	0	0	0	0	0	0	0	0	0	0
29.98	0	0	0	0	0	0	0	0	0	0	0	0	0	0	0	0	0	0
29.99	0	0	0	0	0	0	0	0	0	0	0	0	0	0	0	0	0	0
30	0	0	0	0	0	0	0	0	0	0	0	0	0	0	0	0	0	0
30.01	0	0	0	0	0	0	0	0	0	0	0	0	0	0	0	0	0	0
30.02	0	0	0	0	0	0	0	0	0	0	0	0	0	0	0	0	0	0
30.03	-9.24866577915304	31.8800266669701	19.3825679639654	0.130645248295937	0	0.00346495251747457	0	0	0	0	0	0	0	-8.72323179316871	0	0	0	0
